<svg width="1200" height="360" viewBox="0 0 1200 360" fill="none" xmlns="http://www.w3.org/2000/svg" role="img" aria-label="Content Compliance Skill banner">
  <rect width="1200" height="360" rx="28" fill="#101828"/>
  <rect x="34" y="34" width="1132" height="292" rx="22" fill="#172033" stroke="#344054" stroke-width="2"/>
  <text x="78" y="96" fill="#E4E7EC" font-family="Inter, ui-sans-serif, system-ui, -apple-system, BlinkMacSystemFont, Segoe UI, sans-serif" font-size="24" font-weight="700">Content Compliance Skill</text>
  <text x="78" y="140" fill="#F9FAFB" font-family="Inter, ui-sans-serif, system-ui, -apple-system, BlinkMacSystemFont, Segoe UI, sans-serif" font-size="46" font-weight="800">Douyin &amp; Xiaohongshu Review</text>
  <text x="78" y="178" fill="#98A2B3" font-family="Inter, ui-sans-serif, system-ui, -apple-system, BlinkMacSystemFont, Segoe UI, sans-serif" font-size="21">Official-source-backed rule cards, visual risk bars, weak-area scores, and rewrite suggestions.</text>
  <g transform="translate(78 224)">
    <rect width="80" height="32" rx="16" fill="#12B76A"/>
    <text x="40" y="22" text-anchor="middle" fill="#052E16" font-family="Inter, ui-sans-serif, system-ui, sans-serif" font-size="14" font-weight="800">LOW</text>
    <rect x="96" width="80" height="32" rx="16" fill="#FEC84B"/>
    <text x="136" y="22" text-anchor="middle" fill="#3B2500" font-family="Inter, ui-sans-serif, system-ui, sans-serif" font-size="14" font-weight="800">WATCH</text>
    <rect x="192" width="80" height="32" rx="16" fill="#F04438"/>
    <text x="232" y="22" text-anchor="middle" fill="#FFF5F5" font-family="Inter, ui-sans-serif, system-ui, sans-serif" font-size="14" font-weight="800">RISK</text>
  </g>
  <g transform="translate(690 78)">
    <rect width="382" height="204" rx="18" fill="#0B1220" stroke="#475467" stroke-width="2"/>
    <text x="28" y="45" fill="#E4E7EC" font-family="Inter, ui-sans-serif, system-ui, sans-serif" font-size="18" font-weight="800">Sample Output</text>
    <text x="28" y="83" fill="#98A2B3" font-family="Inter, ui-sans-serif, system-ui, sans-serif" font-size="15">Overall Safety Score</text>
    <text x="260" y="83" fill="#12B76A" font-family="Inter, ui-sans-serif, system-ui, sans-serif" font-size="15" font-weight="800">8 / 10</text>
    <g transform="translate(28 105)">
      <rect width="24" height="18" rx="5" fill="#12B76A"/>
      <rect x="32" width="24" height="18" rx="5" fill="#12B76A"/>
      <rect x="64" width="24" height="18" rx="5" fill="#12B76A"/>
      <rect x="96" width="24" height="18" rx="5" fill="#12B76A"/>
      <rect x="128" width="24" height="18" rx="5" fill="#12B76A"/>
      <rect x="160" width="24" height="18" rx="5" fill="#12B76A"/>
      <rect x="192" width="24" height="18" rx="5" fill="#12B76A"/>
      <rect x="224" width="24" height="18" rx="5" fill="#12B76A"/>
      <rect x="256" width="24" height="18" rx="5" fill="#344054"/>
      <rect x="288" width="24" height="18" rx="5" fill="#344054"/>
    </g>
    <text x="28" y="166" fill="#98A2B3" font-family="Inter, ui-sans-serif, system-ui, sans-serif" font-size="15">Weakest area</text>
    <text x="28" y="196" fill="#FEC84B" font-family="Inter, ui-sans-serif, system-ui, sans-serif" font-size="17" font-weight="800">External download / comment link: 5 / 10</text>
  </g>
</svg>
